<svg version="1.2" xmlns="http://www.w3.org/2000/svg" viewBox="0 0 413 288" width="413" height="288"><style>.a{stroke:#fff;stroke-linejoin:round;stroke-width:7.9}</style><path class="a" d="m119 280h166c0 0-15-125.9-82.1-123.7-69.2 2.2-83.9 123.7-83.9 123.7z"/><path class="a" d="m393.7 250c-8-18.2-21-48.1-29-66.4-8-18.3-69.6-100.4-79.8-98.3l-49.5-74.9c-11-25.2-96.4 39.4-99.4 49.3-3 9.9-7 24.5-24.8 47.8-17.9 23.3-87.1 129.7-87.1 129.7l-20.1 46.1h116c10.8-73.5 43.8-127 83-127 39.1 0 72.2 53.5 83 127h122.1z"/></svg>