<?xml version="1.0" encoding="UTF-8" standalone="no"?>
<!DOCTYPE svg PUBLIC "-//W3C//DTD SVG 1.1//EN" "http://www.w3.org/Graphics/SVG/1.1/DTD/svg11.dtd">
<svg width="100%" height="100%" viewBox="0 0 77 93"
     version="1.1" xmlns="http://www.w3.org/2000/svg" xml:space="preserve"
     style="fill-rule:evenodd;clip-rule:evenodd;stroke-linecap:square;stroke-linejoin:round;stroke-miterlimit:1.5;">
    <g transform="matrix(1,0,0,1,-935,-493)">
        <g>
            <g transform="matrix(0.980718,0,0,0.985907,-252.018,-58.3198)">
                <path d="M1282.75,559.2L1288.87,565.286L1287.85,623.101C1274.49,638.819 1256.24,653.53 1256.24,653.53L1248.08,653.53C1248.08,653.53 1224.26,638.546 1210.36,623.101L1210.36,566.3L1216.47,559.2L1282.75,559.2ZM1249.96,619.044C1248.26,619.044 1244.86,618.623 1244.86,623.101C1244.86,627.579 1245.46,629.187 1249.96,629.187C1254.46,629.187 1255.06,627.579 1255.06,623.101C1255.06,618.623 1251.66,619.044 1249.96,619.044ZM1258.62,571.422C1258.74,568.777 1241.28,568.857 1241.29,571.422C1241.34,581.506 1246.39,608.901 1246.39,608.901L1253.53,608.901C1253.53,608.901 1258.07,583.988 1258.62,571.422Z"
                      style="fill:rgb(254,242,0);"/>
                <path d="M1282.75,559.2L1288.87,565.286L1287.85,623.101C1274.49,638.819 1256.24,653.53 1256.24,653.53L1248.08,653.53C1248.08,653.53 1224.26,638.546 1210.36,623.101L1210.36,566.3L1216.47,559.2L1282.75,559.2ZM1281.06,563.258L1218.35,563.258L1214.43,567.801C1214.43,567.801 1214.43,621.529 1214.43,621.529C1226.41,634.368 1244.85,646.608 1249.28,649.473C1249.28,649.473 1254.78,649.473 1254.78,649.473C1258.76,646.174 1272.74,634.323 1283.8,621.573C1283.8,621.573 1284.76,566.937 1284.76,566.937L1281.06,563.258ZM1249.96,614.987C1251.65,614.987 1254.29,615.078 1256.19,616.484C1257.72,617.617 1259.13,619.504 1259.13,623.101C1259.13,627.532 1258.1,630.054 1256.21,631.526C1254.92,632.534 1253.01,633.244 1249.96,633.244C1246.91,633.244 1244.99,632.534 1243.7,631.526C1241.81,630.054 1240.78,627.532 1240.78,623.101C1240.78,619.504 1242.2,617.617 1243.73,616.484C1245.63,615.078 1248.26,614.987 1249.96,614.987ZM1249.96,619.044C1248.26,619.044 1244.86,618.623 1244.86,623.101C1244.86,627.579 1245.46,629.187 1249.96,629.187C1254.46,629.187 1255.06,627.579 1255.06,623.101C1255.06,618.623 1251.66,619.044 1249.96,619.044ZM1262.7,571.6C1262.14,584.349 1257.54,609.625 1257.54,609.625L1253.53,612.958L1246.39,612.958L1242.38,609.633C1242.38,609.633 1237.26,581.716 1237.21,571.442C1237.2,570.018 1237.78,568.493 1239.52,567.346C1241.12,566.288 1245.53,565.421 1249.99,565.411C1254.49,565.401 1258.91,566.288 1260.49,567.376C1262.21,568.561 1262.77,570.109 1262.7,571.6ZM1258.62,571.422C1258.74,568.777 1241.28,568.857 1241.29,571.422C1241.34,581.506 1246.39,608.901 1246.39,608.901L1253.53,608.901C1253.53,608.901 1258.07,583.988 1258.62,571.422Z"
                      style="fill:rgb(254,242,0);"/>
            </g>
            <g transform="matrix(1,0,0,1.0264,-274.662,-78.9728)">
                <path d="M1257,569C1256.46,581.07 1252,605 1252,605L1245,605C1245,605 1240.05,578.686 1240,569C1239.99,566.536 1257.11,566.459 1257,569Z"
                      style="fill-opacity:0.67;stroke:black;stroke-width:4.44px;"/>
            </g>
            <g transform="matrix(1,0,0,1,-276.462,-64.2)">
                <path d="M1250.3,616.2C1251.97,616.2 1255.3,615.785 1255.3,620.2C1255.3,624.615 1254.71,626.2 1250.3,626.2C1245.88,626.2 1245.3,624.615 1245.3,620.2C1245.3,615.785 1248.63,616.2 1250.3,616.2Z"
                      style="fill-opacity:0.69;stroke:black;stroke-width:4.5px;"/>
            </g>
        </g>
    </g>
</svg>
