<?xml version="1.0" encoding="UTF-8" standalone="no"?>
<!DOCTYPE svg PUBLIC "-//W3C//DTD SVG 1.1//EN" "http://www.w3.org/Graphics/SVG/1.1/DTD/svg11.dtd">
<svg width="100%" height="100%" viewBox="0 0 50 45"
     version="1.1" xmlns="http://www.w3.org/2000/svg" xml:space="preserve"
     style="fill-rule:evenodd;clip-rule:evenodd;stroke-linejoin:round;stroke-miterlimit:2;">
    <g transform="matrix(1,0,0,1,-340,-539)">
        <g transform="matrix(1.66064,0,0,1.66064,-388.94,-386.829)">
            <path id="Stamina"
                  d="M453.87,584.322C449.843,581.589 444.165,577.897 441.141,573.205L445.649,573.205L448.062,568.968L453.441,578.792L454.96,576.01L454.974,576.031L457.775,570.953L467.868,570.953C465.552,576.279 459.491,580.456 454.945,583.534L454.945,583.536L453.9,584.321L453.9,584.343L453.885,584.332L453.871,584.343L453.87,584.322ZM453.644,572.657L449.246,564.641L448.636,563.372L444.301,570.336L439.714,570.366C438.967,568.298 438.798,566.064 439.497,563.66C440.983,558.55 445.606,556.937 450.255,558.513C450.324,558.536 453.608,559.73 453.926,561.083C453.926,561.087 453.926,561.09 453.926,561.094L453.929,561.094C453.928,561.09 453.927,561.087 453.926,561.083C454.018,559.669 457.549,558.385 457.62,558.361C462.269,556.785 466.893,558.398 468.378,563.508C468.865,565.183 468.931,566.777 468.673,568.289L455.797,568.289L453.644,572.67L453.644,572.657Z"/>
        </g>
    </g>
</svg>
