<?xml version="1.0" encoding="UTF-8" standalone="no"?>
<!DOCTYPE svg PUBLIC "-//W3C//DTD SVG 1.1//EN" "http://www.w3.org/Graphics/SVG/1.1/DTD/svg11.dtd">
<svg width="100%" height="100%" viewBox="0 0 34 26" version="1.1" xmlns="http://www.w3.org/2000/svg" xmlns:xlink="http://www.w3.org/1999/xlink" xml:space="preserve" xmlns:serif="http://www.serif.com/" style="fill-rule:evenodd;clip-rule:evenodd;stroke-linejoin:round;stroke-miterlimit:2;">
    <g transform="matrix(1,0,0,1,-870,-558)">
        <path id="Jump" d="M872.099,581.88L872.099,558.428L878.089,558.428L878.089,563.585L881.969,563.585L881.969,569.257L878.089,569.257L878.089,571.76L881.969,571.76L881.969,577.431L878.089,577.431L878.089,581.88L879.989,581.88L879.989,583.696L870.2,583.696L870.2,581.88L872.099,581.88ZM895.745,569.257L892.228,569.257L892.228,563.585L895.745,563.585L895.745,558.428L901.735,558.428L901.735,581.88L903.635,581.88L903.635,583.696L893.846,583.696L893.846,581.88L895.745,581.88L895.745,577.431L892.228,577.431L892.228,571.76L895.745,571.76L895.745,569.257ZM889.945,577.431L883.198,577.431L883.198,571.76L889.945,571.76L889.945,577.431ZM889.945,569.257L883.198,569.257L883.198,563.585L889.945,563.585L889.945,569.257Z"/>
    </g>
</svg>
