<?xml version="1.0" encoding="UTF-8" standalone="no"?><!DOCTYPE svg PUBLIC "-//W3C//DTD SVG 1.1//EN"
        "http://www.w3.org/Graphics/SVG/1.1/DTD/svg11.dtd">
<svg width="100%" height="100%" viewBox="0 0 284 375"
     version="1.1" xmlns="http://www.w3.org/2000/svg" xml:space="preserve"
     style="fill-rule:evenodd;clip-rule:evenodd;stroke-linejoin:round;stroke-miterlimit:2;"><path d="M87.483,244.437c-9.835,-10.325 -26.243,-24.009 -30.989,-29.739c-12.61,-15.228 -28.907,-33.896 -31.828,-71.896c-3.072,-39.966 18.944,-79.188 52.939,-99.951c17.898,-10.932 39.479,-16.126 61.959,-15.692c31.083,0.602 41.029,3.16 61.218,14.913c27.747,16.153 56.193,59.097 52.724,100.73c-1.659,19.92 -12.366,50.585 -37.481,77.099c-25.81,27.248 -47.759,51.727 -49.539,54.441c-23.933,36.503 -24.706,78.187 -24.706,78.187c0,0 -7.531,-48.205 -26.277,-75.882c-8.358,-12.339 -18.205,-21.906 -28.02,-32.21Z" style="fill:#0079c4;"/>
    <path d="M82.957,248.747c-9.934,-10.428 -26.483,-24.275 -31.277,-30.063c-13.217,-15.959 -30.184,-35.576 -33.245,-75.403c-3.25,-42.273 19.955,-83.802 55.912,-105.764c18.878,-11.53 41.627,-17.065 65.338,-16.606c32.631,0.631 43.047,3.421 64.241,15.76c29.377,17.101 59.481,62.573 55.809,106.65c-1.74,20.882 -12.845,53.084 -39.172,80.878c-25.422,26.838 -47.097,50.896 -48.85,53.57c-22.922,34.96 -23.684,74.876 -23.684,74.876c-0.06,3.241 -2.589,5.899 -5.823,6.12c-3.234,0.221 -6.101,-2.068 -6.601,-5.271c-0,-0 -7.167,-46.605 -25.277,-73.342c-8.155,-12.04 -17.793,-21.35 -27.371,-31.405Zm4.526,-4.31c9.815,10.304 19.662,19.871 28.02,32.21c18.746,27.677 26.277,75.882 26.277,75.882c0,0 0.773,-41.684 24.706,-78.187c1.78,-2.714 23.729,-27.193 49.539,-54.441c25.115,-26.514 35.822,-57.179 37.481,-77.099c3.469,-41.633 -24.977,-84.577 -52.724,-100.73c-20.189,-11.753 -30.135,-14.311 -61.218,-14.913c-22.48,-0.434 -44.061,4.76 -61.959,15.692c-33.995,20.763 -56.011,59.985 -52.939,99.951c2.921,38 19.218,56.668 31.828,71.896c4.746,5.73 21.154,19.414 30.989,29.739Z"
          style="fill:#fff;"/>
    <ellipse cx="139.088" cy="138.41" rx="70.905" ry="67.762" style="fill:#009dfe;"/>
    <circle cx="139.088" cy="138.635" r="36.625" style="fill:#fff;"/></svg>