<svg version="1.2" xmlns="http://www.w3.org/2000/svg" viewBox="0 0 59 81" width="59" height="81">
	<title>markers-soft@2x</title>
	<style>
		.s0 { opacity: .97;fill: #87d9fd } 
	</style>
	<path id="Path 0" class="s0" d="m22 1.3c-2.5 0.7-6.3 2.4-8.4 3.7-2.2 1.4-5.5 4.3-7.3 6.5-1.8 2.2-4.1 6.3-5 9-1 3.1-1.4 7-1.1 10.5 0.3 3.5 1.7 8.1 3.8 12.5 1.8 3.9 6.9 12.2 11.2 18.5 4.3 6.3 9.1 13.1 10.7 15l2.9 3.5c5.2-6.1 8.8-10.6 11.3-13.9 2.5-3.4 6.2-8.7 8.2-11.8 2-3.2 5.2-8.6 6.9-12 2.8-5.5 3.2-7.3 3.3-13.8 0-5.8-0.5-8.5-2.3-11.7-1.2-2.4-3.8-5.9-5.7-7.8-1.9-1.9-5.6-4.6-8.2-5.9-2.7-1.3-7.3-2.6-10.3-3-3.2-0.3-7.4 0-10 0.7z"/>
</svg>