<?xml version="1.0" encoding="UTF-8" standalone="no"?>
<!DOCTYPE svg PUBLIC "-//W3C//DTD SVG 1.1//EN" "http://www.w3.org/Graphics/SVG/1.1/DTD/svg11.dtd">
<svg width="100%" height="100%" viewBox="0 0 77 93" version="1.1" xmlns="http://www.w3.org/2000/svg" xmlns:xlink="http://www.w3.org/1999/xlink" xml:space="preserve" xmlns:serif="http://www.serif.com/" style="fill-rule:evenodd;clip-rule:evenodd;">
    <g transform="matrix(1,0,0,1,-457,-423)">
        <g transform="matrix(1,0,0,1,-478,-70)">
            <g transform="matrix(1,0,0,1,478,70)">
                <path d="M528,423L534,429L533,486C519.892,501.496 502,516 502,516L494,516C494,516 470.632,501.227 457,486L457,430L463,423L528,423ZM484.721,488.28C480.919,480.393 482.947,475.873 485.864,471.608C489.026,466.952 489.88,462.328 489.88,462.328C489.88,462.328 492.367,465.595 491.369,470.683C495.779,465.779 496.633,457.922 495.963,454.896C505.983,461.907 510.248,477.047 504.494,488.28C535.167,470.933 512.132,444.941 508.116,442.029C509.429,444.941 509.714,449.886 507.012,452.303C502.427,434.956 491.128,431.4 491.128,431.4C492.442,440.36 486.249,450.135 480.319,457.458C480.1,453.866 479.851,451.418 478.003,448.002C477.578,454.471 472.638,459.77 471.285,466.238C469.472,475.054 472.638,481.488 484.686,488.28L484.721,488.28Z" style="fill:rgb(254,242,0);"/>
                <path d="M528,423L534,429L533,486C519.892,501.496 502,516 502,516L494,516C494,516 470.632,501.227 457,486L457,430L463,423L528,423ZM526.343,427L464.84,427L461,431.48C461,431.48 461,484.45 461,484.451C472.747,497.108 490.829,509.175 495.175,512C495.175,512 500.564,512 500.564,512C504.47,508.748 518.181,497.064 529.026,484.494C529.026,484.494 529.971,430.628 529.971,430.628L526.343,427ZM507.114,441.519L510.464,438.791C512.057,439.946 516.362,444.247 519.702,450.268C523.099,456.394 525.454,464.234 523.439,472.174C521.735,478.89 516.932,485.841 506.463,491.762L500.934,486.456C504.564,479.371 503.47,470.456 499.172,463.911C498.301,467.214 496.773,470.655 494.343,473.358L490.617,471.498C490.188,472.275 489.706,473.07 489.166,473.865C486.948,477.108 485.434,480.547 488.324,486.543L484.721,492.28L484.686,492.28L482.721,491.764C474.401,487.073 469.94,482.346 468.01,477.271C466.633,473.649 466.473,469.778 467.369,465.419C468.115,461.853 469.801,458.589 471.407,455.345C472.627,452.882 473.833,450.448 474.011,447.74L481.521,446.099C481.851,446.71 482.14,447.295 482.393,447.863C485.601,442.827 487.947,437.278 487.17,431.98L492.329,427.585C492.329,427.585 501.009,430.073 507.114,441.519ZM484.721,488.28C480.919,480.393 482.947,475.873 485.864,471.608C489.026,466.952 489.88,462.328 489.88,462.328C489.88,462.328 492.367,465.595 491.369,470.683C495.779,465.779 496.633,457.922 495.963,454.896C505.983,461.907 510.248,477.047 504.494,488.28C535.167,470.933 512.132,444.941 508.116,442.029C509.429,444.941 509.714,449.886 507.012,452.303C502.427,434.956 491.128,431.4 491.128,431.4C492.442,440.36 486.249,450.135 480.319,457.458C480.1,453.866 479.851,451.418 478.003,448.002C477.578,454.471 472.638,459.77 471.285,466.238C469.472,475.054 472.638,481.488 484.686,488.28L484.721,488.28Z" style="fill:rgb(254,242,0);"/>
            </g>
            <g transform="matrix(0.437943,0,0,0.437943,906.623,413.527)">
                <path d="M128.095,330.53C119.415,312.52 124.045,302.2 130.705,292.46C137.925,281.83 139.875,271.27 139.875,271.27C139.875,271.27 145.555,278.73 143.275,290.35C153.345,279.15 155.295,261.21 153.765,254.3C176.645,270.31 186.385,304.88 173.245,330.53C243.285,290.92 190.685,231.57 181.515,224.92C184.515,231.57 185.165,242.86 178.995,248.38C168.525,208.77 142.725,200.65 142.725,200.65C145.725,221.11 131.585,243.43 118.045,260.15C117.545,251.95 116.975,246.36 112.755,238.56C111.785,253.33 100.505,265.43 97.415,280.2C93.275,300.33 100.505,315.02 128.015,330.53L128.095,330.53Z" style="fill-opacity:0.69;stroke:black;stroke-width:5px;"/>
            </g>
        </g>
    </g>
</svg>
